<svg viewBox="0 0 64 64" fill="none" xmlns="http://www.w3.org/2000/svg" width="512" height="512">
  <!-- Plate circle -->
  <circle cx="32" cy="32" r="30" fill="#FFF8E7" stroke="#FFC72C" stroke-width="2" />
  <!-- Fork on left -->
  <g transform="translate(16, 12)">
    <rect x="3" y="0" width="1.5" height="14" rx="0.75" fill="#FF8C42" />
    <rect x="6" y="0" width="1.5" height="14" rx="0.75" fill="#FF8C42" />
    <rect x="9" y="0" width="1.5" height="14" rx="0.75" fill="#FF8C42" />
    <path d="M3.75 14 Q6.75 17 9.75 14" stroke="#FF8C42" stroke-width="1.5" fill="none" stroke-linecap="round" />
    <rect x="6" y="17" width="1.5" height="15" rx="0.75" fill="#FF8C42" />
  </g>
  <!-- Spoon on right -->
  <g transform="translate(38, 11)">
    <ellipse cx="5" cy="7" rx="4" ry="6" fill="#FF8C42" opacity="0.9" />
    <rect x="4.25" y="13" width="1.5" height="18" rx="0.75" fill="#FF8C42" />
  </g>
  <!-- Steam hearts -->
  <path d="M28 20 C28 17 24 16 24 19 C24 21 26 23 28 25 C30 23 32 21 32 19 C32 16 28 17 28 20Z" fill="#FFC72C" opacity="0.8" />
  <!-- C letter in center -->
  <text x="32" y="42" text-anchor="middle" font-family="Georgia, serif" font-size="20" font-weight="bold" fill="#5C4033" letter-spacing="-0.5">C</text>
</svg>
